<svg width="35" height="33" viewBox="0 0 35 33" fill="none" xmlns="http://www.w3.org/2000/svg">
<g clip-path="url(#clip0_1_874)">
<path d="M16.4902 23C16.4902 26.866 13.3562 30 9.49023 30C5.62424 30 2.49023 26.866 2.49023 23" stroke="#3366FF" stroke-width="5"/>
<path fill-rule="evenodd" clip-rule="evenodd" d="M9.44336 21.7737C14.6901 21.7737 18.9434 17.5204 18.9434 12.2737C18.9434 7.02698 14.6901 2.77368 9.44336 2.77368C4.19665 2.77368 -0.0566406 7.02698 -0.0566406 12.2737C-0.0566406 17.5204 4.19665 21.7737 9.44336 21.7737ZM9.44339 16.4299C11.7388 16.4299 13.5996 14.5691 13.5996 12.2737C13.5996 9.97826 11.7388 8.11744 9.44339 8.11744C7.14796 8.11744 5.28714 9.97826 5.28714 12.2737C5.28714 14.5691 7.14796 16.4299 9.44339 16.4299Z" fill="#3366FF"/>
<circle cx="21" cy="4" r="3" fill="#3366FF"/>
</g>
<defs>
<clipPath id="clip0_1_874">
<rect width="34.6195" height="33" fill="white"/>
</clipPath>
</defs>
</svg>
